<svg width="41" height="40" viewBox="0 0 41 40" fill="none" xmlns="http://www.w3.org/2000/svg">
<g clip-path="url(#clip0)">
<path d="M12.6762 33.0469H7.18917V15.3906H12.6762V33.0469ZM13.2237 9.76532C13.2237 7.99744 11.7846 6.5625 10.0117 6.5625C8.23207 6.5625 6.79662 7.99744 6.79662 9.76532C6.79662 11.5338 8.23207 12.9688 10.0117 12.9688C11.7846 12.9688 13.2237 11.5338 13.2237 9.76532ZM33.2128 23.3331C33.2128 18.5934 32.2082 15.0781 26.6528 15.0781C23.9834 15.0781 22.1916 16.4087 21.4601 17.7924H21.4549V15.3906H16.1246V33.0469H21.4549V24.2804C21.4549 21.9846 22.0412 19.7604 24.8965 19.7604C27.7129 19.7604 27.8041 22.3859 27.8041 24.4263V33.0469H33.2128V23.3331ZM40.2676 35.3125V4.6875C40.2676 2.10266 38.1579 0 35.5644 0H4.83697C2.24348 0 0.133789 2.10266 0.133789 4.6875V35.3125C0.133789 37.8973 2.24348 40 4.83697 40H35.5644C38.1579 40 40.2676 37.8973 40.2676 35.3125ZM35.5644 3.125C36.4288 3.125 37.1321 3.82599 37.1321 4.6875V35.3125C37.1321 36.174 36.4288 36.875 35.5644 36.875H4.83697C3.97257 36.875 3.26924 36.174 3.26924 35.3125V4.6875C3.26924 3.82599 3.97257 3.125 4.83697 3.125H35.5644Z" fill="white"/>
</g>
<defs>
<clipPath id="clip0">
<rect width="40.1338" height="40" fill="white" transform="translate(0.133789)"/>
</clipPath>
</defs>
</svg>
