<svg width="41" height="40" viewBox="0 0 41 40" fill="none" xmlns="http://www.w3.org/2000/svg">
<g clip-path="url(#clip0)">
<path d="M40.6295 11.7601C40.5354 9.63476 40.1906 8.17359 39.6966 6.90748C39.187 5.56353 38.403 4.36029 37.3758 3.36003C36.3722 2.34421 35.157 1.55487 33.8241 1.05489C32.5464 0.562549 31.0881 0.218854 28.9556 0.125146C26.8072 0.0235031 26.1252 0 20.6763 0C15.2274 0 14.5453 0.0235031 12.4049 0.11721C10.2724 0.210918 8.80639 0.554918 7.53635 1.04696C6.1876 1.55487 4.98034 2.33627 3.97674 3.36003C2.95752 4.36029 2.16584 5.57146 1.66389 6.89985C1.1699 8.17359 0.825054 9.62682 0.731034 11.7522C0.62905 13.8934 0.605469 14.5732 0.605469 20.0039C0.605469 25.4347 0.62905 26.1144 0.723071 28.2477C0.817092 30.3731 1.16224 31.8342 1.65623 33.1003C2.16584 34.4443 2.95752 35.6475 3.97674 36.6478C4.98034 37.6636 6.19556 38.4529 7.52839 38.9529C8.80639 39.4453 10.2645 39.789 12.3972 39.8827C14.5374 39.9767 15.2197 39.9999 20.6686 39.9999C26.1175 39.9999 26.7996 39.9767 28.94 39.8827C31.0724 39.789 32.5385 39.4453 33.8085 38.9529C36.5057 37.9136 38.6382 35.7882 39.681 33.1003C40.1747 31.8266 40.5198 30.3731 40.6138 28.2477C40.7079 26.1144 40.7314 25.4347 40.7314 20.0039C40.7314 14.5732 40.7235 13.8934 40.6295 11.7601ZM37.0153 28.0914C36.929 30.0449 36.5997 31.0998 36.3253 31.8031C35.651 33.5457 34.2633 34.9287 32.5149 35.6008C31.8093 35.8743 30.7432 36.2024 28.7908 36.2882C26.674 36.3822 26.0391 36.4054 20.6842 36.4054C15.3293 36.4054 14.6865 36.3822 12.5773 36.2882C10.6173 36.2024 9.55887 35.8743 8.85325 35.6008C7.98318 35.2803 7.1912 34.7724 6.54837 34.1082C5.88195 33.4596 5.37234 32.6782 5.05078 31.811C4.77637 31.1078 4.44715 30.0449 4.36109 28.0994C4.26676 25.9896 4.24348 25.3565 4.24348 20.0195C4.24348 14.6824 4.26676 14.0417 4.36109 11.9399C4.44715 9.98639 4.77637 8.93149 5.05078 8.22823C5.37234 7.36075 5.88196 6.57172 6.55633 5.93072C7.20682 5.26653 7.99083 4.75862 8.86121 4.43843C9.56683 4.16494 10.6332 3.83681 12.5853 3.75073C14.7021 3.65703 15.3373 3.63352 20.6919 3.63352C26.0547 3.63352 26.6896 3.65703 28.7988 3.75073C30.7588 3.83681 31.8173 4.16494 32.5229 4.43843C33.3929 4.75862 34.1849 5.26653 34.8277 5.93072C35.4942 6.57935 36.0038 7.36075 36.3253 8.22823C36.5997 8.93149 36.929 9.99402 37.0153 11.9399C37.1094 14.0497 37.1329 14.6824 37.1329 20.0195C37.1329 25.3565 37.1094 25.9816 37.0153 28.0914Z" fill="white"/>
<path d="M20.6765 9.72852C14.9847 9.72852 10.3667 14.3309 10.3667 20.004C10.3667 25.6771 14.9847 30.2794 20.6765 30.2794C26.3686 30.2794 30.9863 25.6771 30.9863 20.004C30.9863 14.3309 26.3686 9.72852 20.6765 9.72852ZM20.6765 26.6694C16.984 26.6694 13.9888 23.6845 13.9888 20.004C13.9888 16.3234 16.984 13.3385 20.6765 13.3385C24.3693 13.3385 27.3642 16.3234 27.3642 20.004C27.3642 23.6845 24.3693 26.6694 20.6765 26.6694Z" fill="white"/>
<path d="M33.8011 9.32219C33.8011 10.6469 32.7234 11.721 31.3939 11.721C30.0648 11.721 28.9871 10.6469 28.9871 9.32219C28.9871 7.99716 30.0648 6.92334 31.3939 6.92334C32.7234 6.92334 33.8011 7.99716 33.8011 9.32219Z" fill="white"/>
</g>
<defs>
<clipPath id="clip0">
<rect width="40.1338" height="40" fill="white" transform="translate(0.535156)"/>
</clipPath>
</defs>
</svg>
