<svg width="42" height="40" viewBox="0 0 42 40" fill="none" xmlns="http://www.w3.org/2000/svg">
<g clip-path="url(#clip0)">
<path d="M6.81549 40H19.906V25.7812H15.2028V21.0938H19.906V15.2344C19.906 12.0035 22.5433 9.375 25.785 9.375H31.6639V14.0625H26.9608C25.664 14.0625 24.6092 15.1138 24.6092 16.4062V21.0938H31.4518L30.6679 25.7812H24.6092V40H35.1913C38.433 40 41.0703 37.3715 41.0703 34.1406V5.85938C41.0703 2.62848 38.433 0 35.1913 0H6.81549C3.57379 0 0.936523 2.62848 0.936523 5.85938V34.1406C0.936523 37.3715 3.57379 40 6.81549 40ZM3.28811 5.85938C3.28811 3.9209 4.87054 2.34375 6.81549 2.34375H35.1913C37.1363 2.34375 38.7187 3.9209 38.7187 5.85938V34.1406C38.7187 36.0791 37.1363 37.6562 35.1913 37.6562H26.9608V28.125H32.66L34.2277 18.75H26.9608V16.4062H34.0155V7.03125H25.785C21.2465 7.03125 17.5544 10.7111 17.5544 15.2344V18.75H12.8512V28.125H17.5544V37.6562H6.81549C4.87054 37.6562 3.28811 36.0791 3.28811 34.1406V5.85938Z" fill="white"/>
</g>
<defs>
<clipPath id="clip0">
<rect width="40.1338" height="40" fill="white" transform="translate(0.936523)"/>
</clipPath>
</defs>
</svg>
