<svg width="50" height="50" viewBox="0 0 50 50" fill="none" xmlns="http://www.w3.org/2000/svg">
<g clip-path="url(#clip0)">
<path d="M0.305176 25.7365L15.9302 41.3615C16.3371 41.7685 16.9963 41.7685 17.4031 41.3615C17.8101 40.9546 17.8101 40.2954 17.4031 39.8886L3.55625 26.0417L48.9583 26.0417C49.5341 26.0417 50 25.5758 50 25C50 24.4242 49.5341 23.9583 48.9583 23.9583L3.55625 23.9583L17.4031 10.1116C17.8101 9.70462 17.8101 9.04544 17.4031 8.6386C17.1997 8.43518 16.9331 8.33343 16.6666 8.33343C16.4001 8.33343 16.1336 8.43518 15.9301 8.6386L0.305077 24.2636C-0.101757 24.6704 -0.101757 25.3296 0.305176 25.7365Z" fill="black"/>
</g>
<defs>
<clipPath id="clip0">
<rect width="50" height="50" fill="white" transform="translate(50 50) rotate(-180)"/>
</clipPath>
</defs>
</svg>
