<svg width="50" height="50" viewBox="0 0 50 50" fill="none" xmlns="http://www.w3.org/2000/svg">
<g clip-path="url(#clip0)">
<path d="M49.6948 24.2635L34.0698 8.63845C33.6629 8.23152 33.0037 8.23152 32.5969 8.63845C32.1899 9.04539 32.1899 9.70457 32.5969 10.1114L46.4438 23.9583H1.0417C0.465918 23.9583 0 24.4242 0 25C0 25.5758 0.465918 26.0417 1.0417 26.0417H46.4438L32.5969 39.8884C32.1899 40.2954 32.1899 40.9546 32.5969 41.3614C32.8003 41.5648 33.0669 41.6666 33.3334 41.6666C33.5999 41.6666 33.8664 41.5648 34.0699 41.3614L49.6949 25.7364C50.1018 25.3296 50.1018 24.6704 49.6948 24.2635Z" fill="black"/>
</g>
<defs>
<clipPath id="clip0">
<rect width="50" height="50" fill="white"/>
</clipPath>
</defs>
</svg>
